<?xml version="1.0" encoding="UTF-8"?>
<svg xmlns="http://www.w3.org/2000/svg" xmlns:xlink="http://www.w3.org/1999/xlink" width="50px" height="50px" viewBox="0 0 50 50" version="1.1">
<g id="surface1">
<path style=" stroke:none;fill-rule:nonzero;fill:rgb(7.058824%,9.019608%,24.705882%);fill-opacity:1;" d="M 15.335938 42.4375 C 15.335938 41.988281 14.976562 41.625 14.523438 41.625 L 13 41.625 L 13 44.5 L 13.675781 44.5 L 13.675781 43.601562 L 14.300781 43.601562 C 14.5 43.601562 14.664062 43.761719 14.664062 43.960938 L 14.664062 44.488281 L 15.335938 44.488281 L 15.335938 43.960938 C 15.335938 43.726562 15.261719 43.511719 15.125 43.335938 C 15.273438 43.1875 15.363281 42.988281 15.363281 42.75 L 15.363281 42.4375 Z M 14.523438 42.289062 C 14.601562 42.289062 14.675781 42.351562 14.675781 42.4375 L 14.675781 42.761719 C 14.675781 42.851562 14.601562 42.9375 14.5 42.9375 L 13.664062 42.9375 L 13.664062 42.300781 L 14.523438 42.300781 Z M 14.523438 42.289062 "/>
<path style=" stroke:none;fill-rule:nonzero;fill:rgb(7.058824%,9.019608%,24.705882%);fill-opacity:1;" d="M 30.425781 44.5 L 28.039062 44.5 L 28.039062 41.625 L 28.710938 41.625 L 28.710938 43.824219 L 30.425781 43.824219 Z M 30.425781 44.5 "/>
<path style=" stroke:none;fill-rule:nonzero;fill:rgb(7.058824%,9.019608%,24.705882%);fill-opacity:1;" d="M 37.0625 42.289062 L 37.0625 41.625 L 34.675781 41.625 L 34.675781 44.5 L 37.0625 44.5 L 37.0625 43.824219 L 35.351562 43.824219 L 35.351562 43.363281 L 36.824219 43.363281 L 36.824219 42.6875 L 35.351562 42.6875 L 35.351562 42.289062 Z M 37.0625 42.289062 "/>
<path style=" stroke:none;fill-rule:nonzero;fill:rgb(7.058824%,9.019608%,24.705882%);fill-opacity:1;" d="M 21.988281 44.5 L 19.398438 44.5 L 20.886719 42.289062 L 19.5625 42.289062 L 19.5625 41.625 L 22.136719 41.625 L 20.664062 43.824219 L 21.988281 43.824219 Z M 21.988281 44.5 "/>
<path style=" stroke:none;fill-rule:nonzero;fill:rgb(7.058824%,9.019608%,24.705882%);fill-opacity:1;" d="M 26.148438 44.5 L 23.5625 44.5 L 25.039062 42.289062 L 23.710938 42.289062 L 23.710938 41.625 L 26.300781 41.625 L 24.8125 43.824219 L 26.148438 43.824219 Z M 26.148438 44.5 "/>
<path style=" stroke:none;fill-rule:nonzero;fill:rgb(7.058824%,9.019608%,24.705882%);fill-opacity:1;" d="M 32.085938 41.625 L 32.761719 41.625 L 32.761719 44.5 L 32.085938 44.5 Z M 32.085938 41.625 "/>
<path style=" stroke:none;fill-rule:nonzero;fill:rgb(7.058824%,9.019608%,24.705882%);fill-opacity:1;" d="M 17.125 41.625 L 17.800781 41.625 L 17.800781 44.5 L 17.125 44.5 Z M 17.125 41.625 "/>
<path style=" stroke:none;fill-rule:nonzero;fill:rgb(7.058824%,9.019608%,24.705882%);fill-opacity:1;" d="M 17.125 41.625 L 17.800781 41.625 L 17.800781 44.5 L 17.125 44.5 Z M 17.125 41.625 "/>
<path style=" stroke:none;fill-rule:nonzero;fill:rgb(7.058824%,9.019608%,24.705882%);fill-opacity:1;" d="M 28.511719 35.324219 L 26.0625 35.324219 L 26.0625 40.585938 L 27.273438 40.585938 L 27.273438 38.886719 L 28.511719 38.886719 C 29.324219 38.886719 29.988281 38.226562 29.988281 37.414062 L 29.988281 36.789062 C 29.988281 35.988281 29.324219 35.324219 28.511719 35.324219 Z M 28.773438 37.414062 C 28.773438 37.5625 28.648438 37.675781 28.511719 37.675781 L 27.273438 37.675781 L 27.273438 36.523438 L 28.511719 36.523438 C 28.664062 36.523438 28.773438 36.648438 28.773438 36.789062 Z M 28.773438 37.414062 "/>
<path style=" stroke:none;fill-rule:nonzero;fill:rgb(36.470588%,46.27451%,66.27451%);fill-opacity:1;" d="M 26.710938 40.585938 L 26.613281 40.585938 L 26.613281 35.875 L 28.5 35.875 C 29.011719 35.875 29.425781 36.289062 29.425781 36.800781 L 29.425781 37.425781 C 29.425781 37.9375 29.011719 38.351562 28.5 38.351562 L 26.710938 38.351562 Z M 26.710938 38.238281 L 28.5 38.238281 C 28.949219 38.238281 29.324219 37.875 29.324219 37.414062 L 29.324219 36.789062 C 29.324219 36.335938 28.960938 35.960938 28.5 35.960938 L 26.710938 35.960938 Z M 26.710938 38.238281 "/>
<path style=" stroke:none;fill-rule:nonzero;fill:rgb(7.058824%,9.019608%,24.705882%);fill-opacity:1;" d="M 19.136719 36.523438 L 19.136719 35.324219 L 15.136719 35.324219 L 15.136719 40.585938 L 19.136719 40.585938 L 19.136719 39.375 L 16.351562 39.375 L 16.351562 38.5625 L 18.699219 38.5625 L 18.699219 37.351562 L 16.351562 37.351562 L 16.351562 36.523438 Z M 19.136719 36.523438 "/>
<path style=" stroke:none;fill-rule:nonzero;fill:rgb(36.470588%,46.27451%,66.27451%);fill-opacity:1;" d="M 19.136719 35.976562 L 19.136719 35.875 L 15.699219 35.875 L 15.699219 40.039062 L 19.136719 40.039062 L 19.136719 39.9375 L 15.800781 39.9375 L 15.800781 38 L 18.699219 38 L 18.699219 37.898438 L 15.800781 37.898438 L 15.800781 35.976562 Z M 19.136719 35.976562 "/>
<path style=" stroke:none;fill-rule:nonzero;fill:rgb(7.058824%,9.019608%,24.705882%);fill-opacity:1;" d="M 23.9375 35.324219 L 19.761719 35.324219 L 19.761719 40.585938 L 20.976562 40.585938 L 20.976562 36.539062 L 21.988281 36.539062 L 21.988281 40.585938 L 23.199219 40.585938 L 23.199219 36.539062 L 23.949219 36.539062 C 24.101562 36.539062 24.210938 36.664062 24.210938 36.800781 L 24.210938 40.585938 L 25.425781 40.585938 L 25.425781 36.800781 C 25.414062 35.988281 24.75 35.324219 23.9375 35.324219 "/>
<path style=" stroke:none;fill-rule:nonzero;fill:rgb(36.470588%,46.27451%,66.27451%);fill-opacity:1;" d="M 23.9375 35.875 L 20.3125 35.875 L 20.3125 40.585938 L 20.414062 40.585938 L 20.414062 35.988281 L 22.539062 35.988281 L 22.539062 40.601562 L 22.636719 40.601562 L 22.636719 35.988281 L 23.9375 35.988281 C 24.386719 35.988281 24.761719 36.351562 24.761719 36.8125 L 24.761719 40.601562 L 24.863281 40.601562 L 24.863281 36.8125 C 24.863281 36.289062 24.4375 35.875 23.9375 35.875 "/>
<path style=" stroke:none;fill-rule:nonzero;fill:rgb(7.058824%,9.019608%,24.705882%);fill-opacity:1;" d="M 13.011719 35.324219 L 8.835938 35.324219 L 8.835938 40.585938 L 10.050781 40.585938 L 10.050781 36.539062 L 11.0625 36.539062 L 11.0625 40.585938 L 12.273438 40.585938 L 12.273438 36.539062 L 13.023438 36.539062 C 13.175781 36.539062 13.289062 36.664062 13.289062 36.800781 L 13.289062 40.585938 L 14.5 40.585938 L 14.5 36.800781 C 14.488281 35.988281 13.824219 35.324219 13.011719 35.324219 "/>
<path style=" stroke:none;fill-rule:nonzero;fill:rgb(36.470588%,46.27451%,66.27451%);fill-opacity:1;" d="M 13.011719 35.875 L 9.386719 35.875 L 9.386719 40.585938 L 9.488281 40.585938 L 9.488281 35.988281 L 11.613281 35.988281 L 11.613281 40.601562 L 11.710938 40.601562 L 11.710938 35.988281 L 13.011719 35.988281 C 13.460938 35.988281 13.835938 36.351562 13.835938 36.8125 L 13.835938 40.601562 L 13.9375 40.601562 L 13.9375 36.8125 C 13.9375 36.289062 13.523438 35.875 13.011719 35.875 "/>
<path style=" stroke:none;fill-rule:nonzero;fill:rgb(7.058824%,9.019608%,24.705882%);fill-opacity:1;" d="M 35.261719 35.324219 L 36.476562 35.324219 L 36.476562 40.585938 L 35.261719 40.585938 Z M 35.261719 35.324219 "/>
<path style=" stroke:none;fill-rule:nonzero;fill:rgb(36.470588%,46.27451%,66.27451%);fill-opacity:1;" d="M 35.8125 35.324219 L 35.914062 35.324219 L 35.914062 40.585938 L 35.8125 40.585938 Z M 35.8125 35.324219 "/>
<path style=" stroke:none;fill-rule:nonzero;fill:rgb(7.058824%,9.019608%,24.705882%);fill-opacity:1;" d="M 33.261719 35.324219 L 33.261719 37.351562 L 31.761719 37.351562 L 31.761719 35.324219 L 30.550781 35.324219 L 30.550781 40.585938 L 31.761719 40.585938 L 31.761719 38.5625 L 33.261719 38.5625 L 33.261719 40.585938 L 34.476562 40.585938 L 34.476562 35.324219 Z M 33.261719 35.324219 "/>
<path style=" stroke:none;fill-rule:nonzero;fill:rgb(36.470588%,46.27451%,66.27451%);fill-opacity:1;" d="M 33.8125 35.324219 L 33.8125 37.898438 L 31.199219 37.898438 L 31.199219 35.324219 L 31.101562 35.324219 L 31.101562 40.585938 L 31.199219 40.585938 L 31.199219 38 L 33.8125 38 L 33.8125 40.585938 L 33.925781 40.585938 L 33.925781 35.324219 Z M 33.8125 35.324219 "/>
<path style=" stroke:none;fill-rule:nonzero;fill:rgb(7.058824%,9.019608%,24.705882%);fill-opacity:1;" d="M 11.1875 44.5 L 9.648438 44.5 C 9.199219 44.5 8.835938 44.136719 8.835938 43.6875 L 8.835938 42.449219 C 8.835938 42 9.199219 41.636719 9.648438 41.636719 L 10.363281 41.636719 C 10.8125 41.636719 11.175781 42 11.175781 42.449219 L 11.175781 42.585938 L 10.5 42.585938 L 10.5 42.449219 C 10.5 42.375 10.4375 42.300781 10.351562 42.300781 L 9.636719 42.300781 C 9.5625 42.300781 9.488281 42.363281 9.488281 42.449219 L 9.488281 43.6875 C 9.488281 43.761719 9.550781 43.835938 9.636719 43.835938 L 10.5 43.835938 L 10.5 43.574219 L 10.101562 43.574219 L 10.101562 42.898438 L 11.164062 42.898438 L 11.164062 44.5 Z M 11.1875 44.5 "/>
<path style=" stroke:none;fill-rule:nonzero;fill:rgb(7.058824%,9.019608%,24.705882%);fill-opacity:1;" d="M 11.1875 44.5 L 9.648438 44.5 C 9.199219 44.5 8.835938 44.136719 8.835938 43.6875 L 8.835938 42.449219 C 8.835938 42 9.199219 41.636719 9.648438 41.636719 L 10.363281 41.636719 C 10.8125 41.636719 11.175781 42 11.175781 42.449219 L 11.175781 42.585938 L 10.5 42.585938 L 10.5 42.449219 C 10.5 42.375 10.4375 42.300781 10.351562 42.300781 L 9.636719 42.300781 C 9.5625 42.300781 9.488281 42.363281 9.488281 42.449219 L 9.488281 43.6875 C 9.488281 43.761719 9.550781 43.835938 9.636719 43.835938 L 10.5 43.835938 L 10.5 43.574219 L 10.101562 43.574219 L 10.101562 42.898438 L 11.164062 42.898438 L 11.164062 44.5 Z M 11.1875 44.5 "/>
<path style=" stroke:none;fill-rule:nonzero;fill:rgb(7.058824%,9.019608%,24.705882%);fill-opacity:1;" d="M 40.324219 44.5 L 39.613281 44.5 C 39.164062 44.5 38.800781 44.136719 38.800781 43.6875 L 38.800781 43.585938 L 39.476562 43.585938 L 39.476562 43.6875 C 39.476562 43.761719 39.539062 43.835938 39.625 43.835938 L 40.335938 43.835938 C 40.414062 43.835938 40.488281 43.773438 40.488281 43.6875 L 40.488281 43.5625 L 39.25 43.238281 C 38.988281 43.164062 38.8125 42.925781 38.8125 42.648438 L 38.8125 42.476562 C 38.8125 42.011719 39.1875 41.636719 39.648438 41.636719 L 40.351562 41.636719 C 40.800781 41.636719 41.164062 42 41.164062 42.449219 L 41.164062 42.585938 L 40.488281 42.585938 L 40.488281 42.449219 C 40.488281 42.375 40.425781 42.300781 40.335938 42.300781 L 39.636719 42.300781 C 39.550781 42.300781 39.476562 42.375 39.476562 42.460938 L 39.476562 42.601562 L 40.710938 42.925781 C 40.976562 43 41.148438 43.238281 41.148438 43.511719 L 41.148438 43.675781 C 41.148438 44.136719 40.773438 44.5 40.324219 44.5 "/>
<path style=" stroke:none;fill-rule:nonzero;fill:rgb(7.058824%,9.019608%,24.705882%);fill-opacity:1;" d="M 39.675781 40.574219 L 37.1875 40.574219 L 37.1875 38.898438 L 38.398438 38.898438 L 38.398438 39.363281 L 39.675781 39.363281 C 39.824219 39.363281 39.949219 39.238281 39.949219 39.085938 L 39.949219 38.851562 L 37.976562 38.238281 C 37.511719 38.085938 37.1875 37.664062 37.1875 37.175781 L 37.1875 36.800781 C 37.1875 35.976562 37.851562 35.3125 38.675781 35.3125 L 41.164062 35.3125 L 41.164062 37.050781 L 39.949219 37.050781 L 39.949219 36.523438 L 38.675781 36.523438 C 38.523438 36.523438 38.398438 36.648438 38.398438 36.800781 L 38.398438 37.101562 L 40.363281 37.699219 C 40.835938 37.851562 41.148438 38.273438 41.148438 38.773438 L 41.148438 39.085938 C 41.164062 39.914062 40.5 40.574219 39.675781 40.574219 "/>
<path style=" stroke:none;fill-rule:nonzero;fill:rgb(36.470588%,46.27451%,66.27451%);fill-opacity:1;" d="M 39.675781 40.023438 L 37.75 40.023438 L 37.75 38.898438 L 37.851562 38.898438 L 37.851562 39.925781 L 39.675781 39.925781 C 40.136719 39.925781 40.5 39.550781 40.5 39.101562 L 40.5 38.789062 C 40.5 38.585938 40.363281 38.398438 40.175781 38.335938 L 38.136719 37.710938 C 37.898438 37.636719 37.75 37.425781 37.75 37.1875 L 37.75 36.8125 C 37.75 36.300781 38.164062 35.875 38.6875 35.875 L 40.613281 35.875 L 40.613281 37.0625 L 40.511719 37.0625 L 40.511719 35.976562 L 38.6875 35.976562 C 38.226562 35.976562 37.863281 36.351562 37.863281 36.800781 L 37.863281 37.175781 C 37.863281 37.375 37.988281 37.550781 38.1875 37.613281 L 40.226562 38.238281 C 40.460938 38.3125 40.625 38.523438 40.625 38.773438 L 40.625 39.085938 C 40.613281 39.613281 40.1875 40.023438 39.675781 40.023438 "/>
<path style=" stroke:none;fill-rule:nonzero;fill:rgb(43.921569%,44.705882%,44.313725%);fill-opacity:1;" d="M 37.789062 11.976562 C 38.148438 11.289062 38.324219 10.601562 38.324219 9.9375 C 38.324219 8.4375 37.488281 7.101562 36.3125 6.300781 C 34.675781 5.1875 32.226562 5.039062 30.488281 7.113281 C 27.949219 6.761719 25.824219 7.460938 25.011719 7.800781 C 24.199219 7.460938 22.074219 6.773438 19.539062 7.113281 C 17.800781 5.039062 15.335938 5.1875 13.710938 6.300781 C 12.539062 7.101562 11.699219 8.4375 11.699219 9.9375 C 11.699219 10.601562 11.875 11.289062 12.238281 11.976562 C 10.925781 13.863281 10.023438 16.113281 10.023438 18.398438 C 10.023438 21.148438 11.199219 22.5625 11.636719 23.175781 C 11.636719 23.175781 11.824219 22.988281 11.988281 22.824219 C 13.238281 25.988281 15.363281 27.699219 17.9375 29.25 C 17.9375 29.25 18 28.9375 18.050781 28.664062 C 20.824219 31.0625 22.136719 30.476562 25.011719 33.726562 C 27.875 30.488281 29.238281 31.039062 31.976562 28.664062 C 32.023438 28.9375 32.085938 29.25 32.085938 29.25 C 33.238281 28.5625 36.460938 26.824219 38.039062 22.824219 C 38.199219 22.988281 38.386719 23.175781 38.386719 23.175781 C 38.664062 22.800781 40 21.300781 40 18.398438 C 40.011719 16.113281 39.101562 13.875 37.789062 11.976562 "/>
<path style=" stroke:none;fill-rule:nonzero;fill:rgb(7.058824%,9.019608%,24.705882%);fill-opacity:1;" d="M 37 12.023438 C 39.636719 7.976562 33.648438 3.75 30.75 7.835938 C 27.8125 7.3125 25.351562 8.386719 25.011719 8.539062 C 24.6875 8.386719 22.210938 7.3125 19.273438 7.835938 C 16.375 3.75 10.386719 7.976562 13.023438 12.023438 C 10.011719 16.164062 10.324219 20.238281 11.710938 22.148438 L 12.289062 21.574219 C 12.289062 21.574219 13.113281 25.5625 17.4375 28.175781 L 17.585938 27.3125 C 20.25 30.164062 22.6875 30.101562 25 32.699219 C 27.300781 30.101562 29.738281 30.164062 32.414062 27.3125 L 32.5625 28.175781 C 36.898438 25.5625 37.710938 21.574219 37.710938 21.574219 L 38.289062 22.148438 C 39.710938 20.226562 40.011719 16.148438 37 12.023438 "/>
<path style=" stroke:none;fill-rule:nonzero;fill:rgb(36.470588%,46.27451%,66.27451%);fill-opacity:1;" d="M 25.039062 27.175781 C 25.039062 27.175781 22.949219 27.210938 22.648438 27.398438 C 22.648438 27.398438 22.289062 28.023438 25.039062 28.011719 C 27.648438 28 27.261719 27.523438 27.289062 27.449219 C 27.289062 27.449219 26.398438 27.175781 25.039062 27.175781 "/>
<path style=" stroke:none;fill-rule:nonzero;fill:rgb(36.470588%,46.27451%,66.27451%);fill-opacity:1;" d="M 23.238281 24.761719 C 23.238281 24.761719 23.5625 23.824219 23.914062 24.125 C 24.386719 24.539062 25.023438 25.375 25.023438 25.460938 L 25.023438 26.585938 L 24.261719 26.625 C 23.824219 26.636719 22.425781 26.976562 22.425781 26.976562 C 20.488281 22.1875 21.5625 18.550781 22.074219 17.261719 C 20.164062 17.675781 19.851562 15.375 19.851562 15.375 C 20.050781 15.335938 20.335938 15.425781 20.675781 15.574219 C 21.1875 15.824219 21.789062 16.238281 22.273438 16.613281 C 22.414062 16.726562 22.550781 16.824219 22.664062 16.925781 C 23.960938 18.023438 25.023438 17.800781 25.023438 17.800781 L 25.023438 22.488281 C 25.011719 22.488281 21.210938 22.1875 23.238281 24.761719 "/>
<path style=" stroke:none;fill-rule:nonzero;fill:rgb(36.470588%,46.27451%,66.27451%);fill-opacity:1;" d="M 26.800781 24.761719 C 29.226562 22.300781 25.273438 22.449219 25.023438 22.488281 C 25.4375 22.511719 28.5 22.523438 26.800781 24.761719 "/>
<path style=" stroke:none;fill-rule:nonzero;fill:rgb(36.470588%,46.27451%,66.27451%);fill-opacity:1;" d="M 28.414062 17.324219 C 30.585938 23.199219 27.824219 26.976562 27.8125 27 C 29.523438 22.511719 28.425781 18.773438 27.675781 17.386719 C 27.289062 17.425781 26.824219 17.398438 26.824219 17.398438 C 26.824219 17.398438 27.398438 17.039062 27.773438 16.699219 C 27.800781 16.675781 27.824219 16.648438 27.863281 16.625 C 28.175781 16.351562 28.773438 15.863281 29.488281 15.574219 C 29.75 15.476562 30.039062 15.398438 30.324219 15.363281 C 30.335938 15.363281 30.125 17.300781 28.414062 17.324219 "/>
<path style=" stroke:none;fill-rule:nonzero;fill:rgb(36.470588%,46.27451%,66.27451%);fill-opacity:1;" d="M 31.863281 9.726562 C 31.863281 9.726562 32.75 7.5 35.476562 8.039062 C 35.476562 8.039062 32.976562 6.386719 31.238281 9.363281 C 31.238281 9.363281 28.738281 8.1875 25.011719 9.800781 C 25.011719 9.800781 21.511719 8.574219 18.851562 9.261719 C 18.851562 9.261719 17.300781 6.574219 15.113281 7.675781 C 12.925781 8.789062 14.0625 11.351562 14.449219 12.011719 C 14.449219 12.011719 10.824219 15.699219 12.1875 20.261719 L 12.914062 19.351562 C 12.914062 19.351562 13.949219 24.3125 16.636719 25.886719 L 16.800781 24.664062 C 16.800781 24.664062 19.601562 28.039062 22.898438 29.476562 C 23.210938 29.625 24.960938 30.488281 25.011719 30.914062 L 25.011719 28.550781 C 25.011719 28.550781 22.726562 28.738281 22.125 27.6875 C 21.710938 26.976562 19.085938 22.289062 20.386719 17.375 C 20.386719 17.375 19.125 17.1875 18.886719 15.050781 C 18.886719 15.050781 17.949219 14.585938 16.773438 14.6875 C 16.773438 14.6875 18.875 14.023438 20.835938 14.789062 C 22.800781 15.550781 23.324219 17.488281 24.664062 16.625 L 25.023438 11.175781 L 25.425781 16.625 C 26.75 17.476562 27.289062 15.550781 29.25 14.789062 C 31.210938 14.023438 33.3125 14.6875 33.3125 14.6875 C 33.3125 14.6875 32.476562 14.101562 31.125 13.824219 C 30 13.601562 28.351562 14.324219 28.351562 14.324219 C 28.351562 14.324219 28.574219 12.773438 29.324219 11.949219 C 29.960938 11.273438 31.414062 11.113281 31.863281 9.726562 Z M 14.925781 11.613281 C 14.851562 10.875 15.789062 10.136719 15.789062 10.136719 C 15.398438 9.738281 14.726562 10.085938 14.726562 10.085938 C 15.335938 8.886719 16.710938 9.476562 16.710938 9.476562 C 16.1875 8.835938 15.085938 8.875 15.085938 8.875 C 16.449219 7.523438 18.101562 9.585938 18.101562 9.585938 C 16.625 9.914062 14.925781 11.613281 14.925781 11.613281 Z M 14.925781 11.613281 "/>
<path style=" stroke:none;fill-rule:nonzero;fill:rgb(100%,73.333333%,13.333333%);fill-opacity:1;" d="M 22.261719 16.601562 C 22.050781 16.539062 21.699219 16.75 21.511719 17.125 C 20.863281 16.9375 20.636719 16.238281 20.664062 15.5625 C 21.175781 15.8125 21.789062 16.226562 22.261719 16.601562 "/>
<path style=" stroke:none;fill-rule:nonzero;fill:rgb(100%,73.333333%,13.333333%);fill-opacity:1;" d="M 28.664062 17.136719 C 28.460938 16.738281 28.085938 16.523438 27.875 16.625 C 28.1875 16.351562 28.789062 15.863281 29.5 15.574219 C 29.539062 16.25 29.300781 16.949219 28.664062 17.136719 "/>
</g>
</svg>
