<?xml version="1.0" encoding="UTF-8"?>
<svg xmlns="http://www.w3.org/2000/svg" xmlns:xlink="http://www.w3.org/1999/xlink" width="39px" height="50px" viewBox="0 0 39 49" version="1.1">
<g id="surface1">
<path style=" stroke:none;fill-rule:nonzero;fill:rgb(76.862745%,80.784314%,83.137255%);fill-opacity:1;" d="M 37.664062 25.996094 C 37.664062 28.117188 29.324219 30.019531 19.257812 30.019531 C 9.191406 30.019531 1.109375 28.117188 1.03125 25.996094 C 0.964844 24.082031 6.664062 22.832031 13.199219 23.078125 C 8.953125 23.710938 4.667969 24.308594 4.667969 25.445312 C 4.667969 27.164062 11.105469 28.378906 19.257812 28.378906 C 27.414062 28.378906 33.964844 27.164062 33.964844 25.445312 C 33.964844 24.335938 30.03125 23.675781 25.304688 23.078125 C 31.921875 22.730469 37.582031 24.148438 37.664062 25.996094 "/>
<path style=" stroke:none;fill-rule:nonzero;fill:rgb(76.862745%,80.784314%,83.137255%);fill-opacity:1;" d="M 15.839844 34.273438 L 16.078125 43.050781 L 16.597656 27.25 C 16.386719 20.308594 17.808594 8.914062 14.855469 0.515625 C 11.714844 10.167969 13.402344 12.339844 12.992188 27.507812 L 13.363281 39.191406 L 13.851562 32.800781 C 13.867188 32.007812 14.476562 32.082031 14.476562 32.761719 L 14.695312 41.179688 L 15.214844 34.328125 C 15.207031 33.40625 15.859375 33.449219 15.839844 34.273438 "/>
<path style=" stroke:none;fill-rule:nonzero;fill:rgb(76.862745%,80.784314%,83.137255%);fill-opacity:1;" d="M 25.457031 29.785156 L 25.007812 48.785156 L 24.703125 37.59375 C 24.6875 36.800781 24.019531 36.765625 23.992188 37.59375 L 23.621094 46.035156 L 23.261719 36.265625 C 23.261719 35.476562 22.65625 35.433594 22.652344 36.320312 L 22.289062 43.289062 L 21.855469 29.523438 L 21.949219 19.542969 C 22.027344 16.875 14.117188 16.910156 14.117188 16.910156 C 14.117188 16.910156 23.535156 17.105469 22.765625 11.421875 C 22.203125 7.28125 6.707031 8.675781 6.707031 8.675781 C 6.707031 8.675781 11.085938 7.253906 16.582031 6.722656 C 22.742188 6.128906 26.457031 7.601562 26.660156 10.546875 C 27.015625 15.757812 20.207031 16.519531 20.207031 16.519531 C 20.207031 16.519531 25.578125 15.484375 25.589844 18.71875 Z M 25.457031 29.785156 "/>
<path style=" stroke:none;fill-rule:nonzero;fill:rgb(100%,100%,100%);fill-opacity:1;" d="M 37.96875 25.695312 C 37.886719 23.871094 32.355469 22.460938 25.839844 22.765625 L 25.890625 18.417969 C 25.882812 15.722656 22.152344 15.992188 20.910156 16.15625 C 22.359375 15.898438 27.265625 14.691406 26.964844 10.246094 C 26.761719 7.296875 23.046875 5.828125 16.886719 6.421875 C 16.78125 6.433594 16.679688 6.445312 16.578125 6.457031 C 16.285156 4.277344 15.84375 2.164062 15.15625 0.214844 C 14.300781 2.851562 13.804688 4.929688 13.527344 6.867188 C 9.710938 7.5 7.007812 8.375 7.007812 8.375 C 7.007812 8.375 9.980469 8.105469 13.371094 8.15625 C 12.988281 12.03125 13.386719 15.71875 13.363281 22.773438 C 6.886719 22.546875 1.265625 23.796875 1.335938 25.695312 C 1.394531 27.355469 6.371094 28.882812 13.367188 29.464844 L 13.667969 38.890625 L 14.15625 32.5 C 14.171875 31.707031 14.78125 31.78125 14.78125 32.460938 L 14.996094 40.878906 L 15.519531 34.027344 C 15.511719 33.101562 16.164062 33.148438 16.140625 33.972656 L 16.382812 42.746094 L 16.808594 29.667969 C 17.707031 29.699219 18.625 29.714844 19.5625 29.714844 C 20.445312 29.714844 21.316406 29.703125 22.171875 29.671875 L 22.59375 42.988281 L 22.953125 36.019531 C 22.960938 35.132812 23.566406 35.175781 23.5625 35.964844 L 23.925781 45.734375 L 24.292969 37.292969 C 24.320312 36.464844 24.992188 36.5 25.007812 37.292969 L 25.308594 48.480469 L 25.757812 29.480469 L 25.757812 29.46875 C 32.832031 28.886719 37.96875 27.359375 37.96875 25.695312 Z M 23.066406 11.121094 C 23.570312 14.808594 19.773438 16.023438 17.050781 16.417969 C 17.082031 13.769531 17.035156 11.019531 16.789062 8.328125 C 20.007812 8.632812 22.832031 9.398438 23.066406 11.121094 Z M 4.972656 25.144531 C 4.972656 24.019531 9.164062 23.421875 13.363281 22.796875 C 13.359375 24.140625 13.339844 25.59375 13.296875 27.207031 L 13.316406 27.816406 C 8.351562 27.371094 4.972656 26.390625 4.972656 25.144531 Z M 16.863281 28.03125 L 16.898438 26.949219 C 16.8125 24.121094 16.996094 20.554688 17.046875 16.753906 C 19.34375 16.988281 22.300781 17.605469 22.253906 19.242188 L 22.167969 28.03125 C 21.324219 28.0625 20.453125 28.078125 19.5625 28.078125 C 18.636719 28.078125 17.738281 28.058594 16.863281 28.03125 Z M 25.777344 27.820312 L 25.839844 22.808594 C 30.460938 23.398438 34.265625 24.054688 34.265625 25.144531 C 34.265625 26.394531 30.800781 27.375 25.777344 27.820312 Z M 25.777344 27.820312 "/>
</g>
</svg>
